<svg width="1315" height="440" viewBox="0 0 1315 440" fill="none" xmlns="http://www.w3.org/2000/svg">
<mask id="path-1-outside-1_18017_2777" maskUnits="userSpaceOnUse" x="800" y="0" width="515" height="84" fill="black">
<rect fill="white" x="800" width="515" height="84"/>
<path d="M802 81.7562L814.417 19.5677H840.669C848.71 19.5677 854.918 21.3149 859.294 24.8093C863.669 28.3037 865.857 33.2196 865.857 39.5569C865.857 44.7689 864.615 49.3294 862.132 53.2384C859.649 57.1473 856.101 60.1679 851.489 62.3001C846.877 64.4323 841.437 65.4984 835.17 65.4984H815.037L824.35 57.6804L819.561 81.7562H802ZM823.906 59.7237L817.787 51.6392H835.968C839.812 51.6392 842.797 50.7212 844.926 48.8852C847.055 47.0491 848.119 44.4431 848.119 41.0672C848.119 38.4612 847.261 36.5363 845.547 35.2925C843.832 34.0488 841.437 33.4269 838.363 33.4269H821.512L830.824 25.0758L823.906 59.7237ZM903.134 83C896.748 83 891.249 81.8451 886.637 79.5352C882.025 77.1661 878.478 73.9382 875.994 69.8516C873.511 65.7649 872.27 61.0267 872.27 55.6371C872.27 50.1882 873.216 45.2131 875.108 40.7118C877 36.1513 879.66 32.2127 883.09 28.896C886.519 25.52 890.599 22.9141 895.329 21.078C900.118 19.242 905.351 18.3239 911.027 18.3239C917.413 18.3239 922.912 19.5085 927.523 21.8776C932.135 24.1874 935.683 27.3857 938.166 31.4724C940.65 35.559 941.891 40.2972 941.891 45.6869C941.891 51.1358 940.945 56.1405 939.053 60.701C937.161 65.2022 934.5 69.1408 931.071 72.5168C927.642 75.8335 923.532 78.4099 918.743 80.2459C914.013 82.082 908.81 83 903.134 83ZM904.641 68.4301C907.716 68.4301 910.436 67.8675 912.801 66.7421C915.225 65.6168 917.265 64.0473 918.92 62.0336C920.635 59.9606 921.936 57.6212 922.823 55.0152C923.71 52.4092 924.153 49.6551 924.153 46.753C924.153 43.9693 923.562 41.541 922.379 39.468C921.256 37.3951 919.6 35.796 917.413 34.6706C915.284 33.4861 912.653 32.8938 909.519 32.8938C906.504 32.8938 903.784 33.4565 901.36 34.5818C898.936 35.7071 896.866 37.3062 895.152 39.3792C893.496 41.3929 892.225 43.7028 891.338 46.3088C890.451 48.9148 890.008 51.6688 890.008 54.571C890.008 57.2954 890.569 59.7237 891.693 61.8559C892.875 63.9289 894.531 65.5576 896.659 66.7421C898.847 67.8675 901.508 68.4301 904.641 68.4301ZM965.368 68.2524L967.94 48.1744L999.513 19.5677H1020.18L987.806 48.5298L976.099 58.5688L965.368 68.2524ZM946.831 81.7562L959.248 19.5677H976.543L964.126 81.7562H946.831ZM989.491 81.7562L973.084 56.0813L985.855 44.2654L1009.09 81.7562H989.491ZM1039.42 43.6436H1068.24L1065.67 56.792H1036.85L1039.42 43.6436ZM1035.78 68.1636H1068.33L1065.49 81.7562H1015.74L1028.16 19.5677H1076.76L1074.01 33.1603H1042.7L1035.78 68.1636ZM1044.48 14.5038L1057.78 1H1075.16L1056.98 14.5038H1044.48ZM1077.55 81.7562L1089.96 19.5677H1104.24L1121.36 61.9447H1113.82L1146.99 19.5677H1161.98L1149.74 81.7562H1133.51L1140.87 44.0878L1143.8 43.9989L1119.23 75.6262H1111.51L1098.12 43.9101L1101.23 44.1766L1093.69 81.7562H1077.55ZM1197.91 83C1191.52 83 1186.02 81.8451 1181.41 79.5352C1176.8 77.1661 1173.25 73.9382 1170.77 69.8516C1168.28 65.7649 1167.04 61.0267 1167.04 55.6371C1167.04 50.1882 1167.99 45.2131 1169.88 40.7118C1171.77 36.1513 1174.43 32.2127 1177.86 28.896C1181.29 25.52 1185.37 22.9141 1190.1 21.078C1194.89 19.242 1200.12 18.3239 1205.8 18.3239C1212.19 18.3239 1217.68 19.5085 1222.3 21.8776C1226.91 24.1874 1230.46 27.3857 1232.94 31.4724C1235.42 35.559 1236.66 40.2972 1236.66 45.6869C1236.66 51.1358 1235.72 56.1405 1233.83 60.701C1231.93 65.2022 1229.27 69.1408 1225.84 72.5168C1222.41 75.8335 1218.31 78.4099 1213.52 80.2459C1208.79 82.082 1203.58 83 1197.91 83ZM1199.41 68.4301C1202.49 68.4301 1205.21 67.8675 1207.57 66.7421C1210 65.6168 1212.04 64.0473 1213.69 62.0336C1215.41 59.9606 1216.71 57.6212 1217.6 55.0152C1218.48 52.4092 1218.93 49.6551 1218.93 46.753C1218.93 43.9693 1218.33 41.541 1217.15 39.468C1216.03 37.3951 1214.37 35.796 1212.19 34.6706C1210.06 33.4861 1207.43 32.8938 1204.29 32.8938C1201.28 32.8938 1198.56 33.4565 1196.13 34.5818C1193.71 35.7071 1191.64 37.3062 1189.92 39.3792C1188.27 41.3929 1187 43.7028 1186.11 46.3088C1185.22 48.9148 1184.78 51.6688 1184.78 54.571C1184.78 57.2954 1185.34 59.7237 1186.47 61.8559C1187.65 63.9289 1189.3 65.5576 1191.43 66.7421C1193.62 67.8675 1196.28 68.4301 1199.41 68.4301ZM1241.6 81.7562L1254.02 19.5677H1268.48L1293.58 61.1452L1287.55 60.9675L1295.79 19.5677H1313L1300.58 81.7562H1286.13L1261.12 40.1788L1267.06 40.3564L1258.81 81.7562H1241.6Z"/>
</mask>
<path d="M802 81.7562L814.417 19.5677H840.669C848.71 19.5677 854.918 21.3149 859.294 24.8093C863.669 28.3037 865.857 33.2196 865.857 39.5569C865.857 44.7689 864.615 49.3294 862.132 53.2384C859.649 57.1473 856.101 60.1679 851.489 62.3001C846.877 64.4323 841.437 65.4984 835.17 65.4984H815.037L824.35 57.6804L819.561 81.7562H802ZM823.906 59.7237L817.787 51.6392H835.968C839.812 51.6392 842.797 50.7212 844.926 48.8852C847.055 47.0491 848.119 44.4431 848.119 41.0672C848.119 38.4612 847.261 36.5363 845.547 35.2925C843.832 34.0488 841.437 33.4269 838.363 33.4269H821.512L830.824 25.0758L823.906 59.7237ZM903.134 83C896.748 83 891.249 81.8451 886.637 79.5352C882.025 77.1661 878.478 73.9382 875.994 69.8516C873.511 65.7649 872.27 61.0267 872.27 55.6371C872.27 50.1882 873.216 45.2131 875.108 40.7118C877 36.1513 879.66 32.2127 883.09 28.896C886.519 25.52 890.599 22.9141 895.329 21.078C900.118 19.242 905.351 18.3239 911.027 18.3239C917.413 18.3239 922.912 19.5085 927.523 21.8776C932.135 24.1874 935.683 27.3857 938.166 31.4724C940.65 35.559 941.891 40.2972 941.891 45.6869C941.891 51.1358 940.945 56.1405 939.053 60.701C937.161 65.2022 934.5 69.1408 931.071 72.5168C927.642 75.8335 923.532 78.4099 918.743 80.2459C914.013 82.082 908.81 83 903.134 83ZM904.641 68.4301C907.716 68.4301 910.436 67.8675 912.801 66.7421C915.225 65.6168 917.265 64.0473 918.92 62.0336C920.635 59.9606 921.936 57.6212 922.823 55.0152C923.71 52.4092 924.153 49.6551 924.153 46.753C924.153 43.9693 923.562 41.541 922.379 39.468C921.256 37.3951 919.6 35.796 917.413 34.6706C915.284 33.4861 912.653 32.8938 909.519 32.8938C906.504 32.8938 903.784 33.4565 901.36 34.5818C898.936 35.7071 896.866 37.3062 895.152 39.3792C893.496 41.3929 892.225 43.7028 891.338 46.3088C890.451 48.9148 890.008 51.6688 890.008 54.571C890.008 57.2954 890.569 59.7237 891.693 61.8559C892.875 63.9289 894.531 65.5576 896.659 66.7421C898.847 67.8675 901.508 68.4301 904.641 68.4301ZM965.368 68.2524L967.94 48.1744L999.513 19.5677H1020.18L987.806 48.5298L976.099 58.5688L965.368 68.2524ZM946.831 81.7562L959.248 19.5677H976.543L964.126 81.7562H946.831ZM989.491 81.7562L973.084 56.0813L985.855 44.2654L1009.09 81.7562H989.491ZM1039.42 43.6436H1068.24L1065.67 56.792H1036.85L1039.42 43.6436ZM1035.78 68.1636H1068.33L1065.49 81.7562H1015.74L1028.16 19.5677H1076.76L1074.01 33.1603H1042.7L1035.78 68.1636ZM1044.48 14.5038L1057.78 1H1075.16L1056.98 14.5038H1044.48ZM1077.55 81.7562L1089.96 19.5677H1104.24L1121.36 61.9447H1113.82L1146.99 19.5677H1161.98L1149.74 81.7562H1133.51L1140.87 44.0878L1143.8 43.9989L1119.23 75.6262H1111.51L1098.12 43.9101L1101.23 44.1766L1093.69 81.7562H1077.55ZM1197.91 83C1191.52 83 1186.02 81.8451 1181.41 79.5352C1176.8 77.1661 1173.25 73.9382 1170.77 69.8516C1168.28 65.7649 1167.04 61.0267 1167.04 55.6371C1167.04 50.1882 1167.99 45.2131 1169.88 40.7118C1171.77 36.1513 1174.43 32.2127 1177.86 28.896C1181.29 25.52 1185.37 22.9141 1190.1 21.078C1194.89 19.242 1200.12 18.3239 1205.8 18.3239C1212.19 18.3239 1217.68 19.5085 1222.3 21.8776C1226.91 24.1874 1230.46 27.3857 1232.94 31.4724C1235.42 35.559 1236.66 40.2972 1236.66 45.6869C1236.66 51.1358 1235.72 56.1405 1233.83 60.701C1231.93 65.2022 1229.27 69.1408 1225.84 72.5168C1222.41 75.8335 1218.31 78.4099 1213.52 80.2459C1208.79 82.082 1203.58 83 1197.91 83ZM1199.41 68.4301C1202.49 68.4301 1205.21 67.8675 1207.57 66.7421C1210 65.6168 1212.04 64.0473 1213.69 62.0336C1215.41 59.9606 1216.71 57.6212 1217.6 55.0152C1218.48 52.4092 1218.93 49.6551 1218.93 46.753C1218.93 43.9693 1218.33 41.541 1217.15 39.468C1216.03 37.3951 1214.37 35.796 1212.19 34.6706C1210.06 33.4861 1207.43 32.8938 1204.29 32.8938C1201.28 32.8938 1198.56 33.4565 1196.13 34.5818C1193.71 35.7071 1191.64 37.3062 1189.92 39.3792C1188.27 41.3929 1187 43.7028 1186.11 46.3088C1185.22 48.9148 1184.78 51.6688 1184.78 54.571C1184.78 57.2954 1185.34 59.7237 1186.47 61.8559C1187.65 63.9289 1189.3 65.5576 1191.43 66.7421C1193.62 67.8675 1196.28 68.4301 1199.41 68.4301ZM1241.6 81.7562L1254.02 19.5677H1268.48L1293.58 61.1452L1287.55 60.9675L1295.79 19.5677H1313L1300.58 81.7562H1286.13L1261.12 40.1788L1267.06 40.3564L1258.81 81.7562H1241.6Z" stroke="white" stroke-width="2" mask="url(#path-1-outside-1_18017_2777)"/>
<path d="M1 433.5V108.5H45.0569L123.44 329.5H100.196L176.417 108.5H220.474L221.014 433.5H171.822L171.281 237.107H179.66L122.63 401.464H98.8442L40.1917 237.107H50.4627V433.5H1Z" fill="url(#paint0_linear_18017_2777)" fill-opacity="0.4"/>
<path d="M234.586 433.5V108.5H382.974V179.536H287.563V362.464H386.488V433.5H234.586ZM283.779 303.036V234.321H371.622V303.036H283.779Z" fill="url(#paint1_linear_18017_2777)" fill-opacity="0.4"/>
<path d="M436.011 433.5L374.655 108.5H429.794L481.419 389.857H453.58L507.907 108.5H557.1L608.454 389.857H581.696L634.943 108.5H686.027L624.672 433.5H567.371L523.584 194.393H538.99L493.312 433.5H436.011Z" fill="url(#paint2_linear_18017_2777)" fill-opacity="0.4"/>
<path d="M720.652 433.5V181.393H662.54V108.5H832.011V181.393H774.169V433.5H720.652Z" fill="url(#paint3_linear_18017_2777)" fill-opacity="0.4"/>
<path d="M869.926 433.5L808.57 108.5H863.709L915.334 389.857H887.494L941.822 108.5H991.015L1042.37 389.857H1015.61L1068.86 108.5H1119.94L1058.59 433.5H1001.29L957.499 194.393H972.905L927.227 433.5H869.926Z" fill="url(#paint4_linear_18017_2777)" fill-opacity="0.4"/>
<path d="M1207.86 440C1192.72 440 1178.76 435.821 1165.96 427.464C1153.17 419.107 1142 407.345 1132.45 392.179C1123.08 376.702 1115.78 358.75 1110.55 338.321C1105.33 317.893 1102.72 295.452 1102.72 271C1102.72 246.548 1105.33 224.107 1110.55 203.679C1115.78 183.25 1123.08 165.452 1132.45 150.286C1142 134.81 1153.17 122.893 1165.96 114.536C1178.76 106.179 1192.72 102 1207.86 102C1223.17 102 1237.14 106.179 1249.75 114.536C1262.55 122.893 1273.63 134.81 1283 150.286C1292.37 165.452 1299.67 183.25 1304.89 203.679C1310.3 224.107 1313 246.548 1313 271C1313 295.452 1310.3 318.048 1304.89 338.786C1299.67 359.214 1292.37 377.012 1283 392.179C1273.63 407.345 1262.55 419.107 1249.75 427.464C1237.14 435.821 1223.17 440 1207.86 440ZM1207.86 363.857C1215.07 363.857 1221.73 361.69 1227.86 357.357C1234.17 353.024 1239.57 346.833 1244.08 338.786C1248.76 330.429 1252.37 320.524 1254.89 309.071C1257.59 297.619 1258.94 284.929 1258.94 271C1258.94 256.762 1257.59 244.071 1254.89 232.929C1252.37 221.476 1248.76 211.726 1244.08 203.679C1239.57 195.321 1234.17 188.976 1227.86 184.643C1221.73 180.31 1215.07 178.143 1207.86 178.143C1200.65 178.143 1193.89 180.31 1187.59 184.643C1181.46 188.976 1176.05 195.321 1171.37 203.679C1166.86 211.726 1163.26 221.476 1160.56 232.929C1158.03 244.071 1156.77 256.762 1156.77 271C1156.77 284.929 1158.03 297.619 1160.56 309.071C1163.26 320.524 1166.86 330.429 1171.37 338.786C1176.05 346.833 1181.46 353.024 1187.59 357.357C1193.89 361.69 1200.65 363.857 1207.86 363.857Z" fill="url(#paint5_linear_18017_2777)" fill-opacity="0.4"/>
<defs>
<linearGradient id="paint0_linear_18017_2777" x1="657" y1="102" x2="657" y2="440" gradientUnits="userSpaceOnUse">
<stop stop-color="#D2CAD7" stop-opacity="0.74"/>
<stop offset="0.899973" stop-color="#D2CAD7" stop-opacity="0"/>
</linearGradient>
<linearGradient id="paint1_linear_18017_2777" x1="657" y1="102" x2="657" y2="440" gradientUnits="userSpaceOnUse">
<stop stop-color="#D2CAD7" stop-opacity="0.74"/>
<stop offset="0.899973" stop-color="#D2CAD7" stop-opacity="0"/>
</linearGradient>
<linearGradient id="paint2_linear_18017_2777" x1="657" y1="102" x2="657" y2="440" gradientUnits="userSpaceOnUse">
<stop stop-color="#D2CAD7" stop-opacity="0.74"/>
<stop offset="0.899973" stop-color="#D2CAD7" stop-opacity="0"/>
</linearGradient>
<linearGradient id="paint3_linear_18017_2777" x1="657" y1="102" x2="657" y2="440" gradientUnits="userSpaceOnUse">
<stop stop-color="#D2CAD7" stop-opacity="0.74"/>
<stop offset="0.899973" stop-color="#D2CAD7" stop-opacity="0"/>
</linearGradient>
<linearGradient id="paint4_linear_18017_2777" x1="657" y1="102" x2="657" y2="440" gradientUnits="userSpaceOnUse">
<stop stop-color="#D2CAD7" stop-opacity="0.74"/>
<stop offset="0.899973" stop-color="#D2CAD7" stop-opacity="0"/>
</linearGradient>
<linearGradient id="paint5_linear_18017_2777" x1="657" y1="102" x2="657" y2="440" gradientUnits="userSpaceOnUse">
<stop stop-color="#D2CAD7" stop-opacity="0.74"/>
<stop offset="0.899973" stop-color="#D2CAD7" stop-opacity="0"/>
</linearGradient>
</defs>
</svg>
