<svg width="1315" height="299" viewBox="0 0 1315 299" fill="none" xmlns="http://www.w3.org/2000/svg">
<mask id="path-1-outside-1_18006_2626" maskUnits="userSpaceOnUse" x="800" y="0" width="515" height="84" fill="black">
<rect fill="white" x="800" width="515" height="84"/>
<path d="M802 81.7562L814.417 19.5677H840.669C848.71 19.5677 854.918 21.3149 859.294 24.8093C863.669 28.3037 865.857 33.2196 865.857 39.5569C865.857 44.7689 864.615 49.3294 862.132 53.2384C859.649 57.1473 856.101 60.1679 851.489 62.3001C846.877 64.4323 841.437 65.4984 835.17 65.4984H815.037L824.35 57.6804L819.561 81.7562H802ZM823.906 59.7237L817.787 51.6392H835.968C839.812 51.6392 842.797 50.7212 844.926 48.8852C847.055 47.0491 848.119 44.4431 848.119 41.0672C848.119 38.4612 847.261 36.5363 845.547 35.2925C843.832 34.0488 841.437 33.4269 838.363 33.4269H821.512L830.824 25.0758L823.906 59.7237ZM903.134 83C896.748 83 891.249 81.8451 886.637 79.5352C882.025 77.1661 878.478 73.9382 875.994 69.8516C873.511 65.7649 872.27 61.0267 872.27 55.6371C872.27 50.1882 873.216 45.2131 875.108 40.7118C877 36.1513 879.66 32.2127 883.09 28.896C886.519 25.52 890.599 22.9141 895.329 21.078C900.118 19.242 905.351 18.3239 911.027 18.3239C917.413 18.3239 922.912 19.5085 927.523 21.8776C932.135 24.1874 935.683 27.3857 938.166 31.4724C940.65 35.559 941.891 40.2972 941.891 45.6869C941.891 51.1358 940.945 56.1405 939.053 60.701C937.161 65.2022 934.5 69.1408 931.071 72.5168C927.642 75.8335 923.532 78.4099 918.743 80.2459C914.013 82.082 908.81 83 903.134 83ZM904.641 68.4301C907.716 68.4301 910.436 67.8675 912.801 66.7421C915.225 65.6168 917.265 64.0473 918.92 62.0336C920.635 59.9606 921.936 57.6212 922.823 55.0152C923.71 52.4092 924.153 49.6551 924.153 46.753C924.153 43.9693 923.562 41.541 922.379 39.468C921.256 37.3951 919.6 35.796 917.413 34.6706C915.284 33.4861 912.653 32.8938 909.519 32.8938C906.504 32.8938 903.784 33.4565 901.36 34.5818C898.936 35.7071 896.866 37.3062 895.152 39.3792C893.496 41.3929 892.225 43.7028 891.338 46.3088C890.451 48.9148 890.008 51.6688 890.008 54.571C890.008 57.2954 890.569 59.7237 891.693 61.8559C892.875 63.9289 894.531 65.5576 896.659 66.7421C898.847 67.8675 901.508 68.4301 904.641 68.4301ZM965.368 68.2524L967.94 48.1744L999.513 19.5677H1020.18L987.806 48.5298L976.099 58.5688L965.368 68.2524ZM946.831 81.7562L959.248 19.5677H976.543L964.126 81.7562H946.831ZM989.491 81.7562L973.084 56.0813L985.855 44.2654L1009.09 81.7562H989.491ZM1039.42 43.6436H1068.24L1065.67 56.792H1036.85L1039.42 43.6436ZM1035.78 68.1636H1068.33L1065.49 81.7562H1015.74L1028.16 19.5677H1076.76L1074.01 33.1603H1042.7L1035.78 68.1636ZM1044.48 14.5038L1057.78 1H1075.16L1056.98 14.5038H1044.48ZM1077.55 81.7562L1089.96 19.5677H1104.24L1121.36 61.9447H1113.82L1146.99 19.5677H1161.98L1149.74 81.7562H1133.51L1140.87 44.0878L1143.8 43.9989L1119.23 75.6262H1111.51L1098.12 43.9101L1101.23 44.1766L1093.69 81.7562H1077.55ZM1197.91 83C1191.52 83 1186.02 81.8451 1181.41 79.5352C1176.8 77.1661 1173.25 73.9382 1170.77 69.8516C1168.28 65.7649 1167.04 61.0267 1167.04 55.6371C1167.04 50.1882 1167.99 45.2131 1169.88 40.7118C1171.77 36.1513 1174.43 32.2127 1177.86 28.896C1181.29 25.52 1185.37 22.9141 1190.1 21.078C1194.89 19.242 1200.12 18.3239 1205.8 18.3239C1212.19 18.3239 1217.68 19.5085 1222.3 21.8776C1226.91 24.1874 1230.46 27.3857 1232.94 31.4724C1235.42 35.559 1236.66 40.2972 1236.66 45.6869C1236.66 51.1358 1235.72 56.1405 1233.83 60.701C1231.93 65.2022 1229.27 69.1408 1225.84 72.5168C1222.41 75.8335 1218.31 78.4099 1213.52 80.2459C1208.79 82.082 1203.58 83 1197.91 83ZM1199.41 68.4301C1202.49 68.4301 1205.21 67.8675 1207.57 66.7421C1210 65.6168 1212.04 64.0473 1213.69 62.0336C1215.41 59.9606 1216.71 57.6212 1217.6 55.0152C1218.48 52.4092 1218.93 49.6551 1218.93 46.753C1218.93 43.9693 1218.33 41.541 1217.15 39.468C1216.03 37.3951 1214.37 35.796 1212.19 34.6706C1210.06 33.4861 1207.43 32.8938 1204.29 32.8938C1201.28 32.8938 1198.56 33.4565 1196.13 34.5818C1193.71 35.7071 1191.64 37.3062 1189.92 39.3792C1188.27 41.3929 1187 43.7028 1186.11 46.3088C1185.22 48.9148 1184.78 51.6688 1184.78 54.571C1184.78 57.2954 1185.34 59.7237 1186.47 61.8559C1187.65 63.9289 1189.3 65.5576 1191.43 66.7421C1193.62 67.8675 1196.28 68.4301 1199.41 68.4301ZM1241.6 81.7562L1254.02 19.5677H1268.48L1293.58 61.1452L1287.55 60.9675L1295.79 19.5677H1313L1300.58 81.7562H1286.13L1261.12 40.1788L1267.06 40.3564L1258.81 81.7562H1241.6Z"/>
</mask>
<path d="M802 81.7562L814.417 19.5677H840.669C848.71 19.5677 854.918 21.3149 859.294 24.8093C863.669 28.3037 865.857 33.2196 865.857 39.5569C865.857 44.7689 864.615 49.3294 862.132 53.2384C859.649 57.1473 856.101 60.1679 851.489 62.3001C846.877 64.4323 841.437 65.4984 835.17 65.4984H815.037L824.35 57.6804L819.561 81.7562H802ZM823.906 59.7237L817.787 51.6392H835.968C839.812 51.6392 842.797 50.7212 844.926 48.8852C847.055 47.0491 848.119 44.4431 848.119 41.0672C848.119 38.4612 847.261 36.5363 845.547 35.2925C843.832 34.0488 841.437 33.4269 838.363 33.4269H821.512L830.824 25.0758L823.906 59.7237ZM903.134 83C896.748 83 891.249 81.8451 886.637 79.5352C882.025 77.1661 878.478 73.9382 875.994 69.8516C873.511 65.7649 872.27 61.0267 872.27 55.6371C872.27 50.1882 873.216 45.2131 875.108 40.7118C877 36.1513 879.66 32.2127 883.09 28.896C886.519 25.52 890.599 22.9141 895.329 21.078C900.118 19.242 905.351 18.3239 911.027 18.3239C917.413 18.3239 922.912 19.5085 927.523 21.8776C932.135 24.1874 935.683 27.3857 938.166 31.4724C940.65 35.559 941.891 40.2972 941.891 45.6869C941.891 51.1358 940.945 56.1405 939.053 60.701C937.161 65.2022 934.5 69.1408 931.071 72.5168C927.642 75.8335 923.532 78.4099 918.743 80.2459C914.013 82.082 908.81 83 903.134 83ZM904.641 68.4301C907.716 68.4301 910.436 67.8675 912.801 66.7421C915.225 65.6168 917.265 64.0473 918.92 62.0336C920.635 59.9606 921.936 57.6212 922.823 55.0152C923.71 52.4092 924.153 49.6551 924.153 46.753C924.153 43.9693 923.562 41.541 922.379 39.468C921.256 37.3951 919.6 35.796 917.413 34.6706C915.284 33.4861 912.653 32.8938 909.519 32.8938C906.504 32.8938 903.784 33.4565 901.36 34.5818C898.936 35.7071 896.866 37.3062 895.152 39.3792C893.496 41.3929 892.225 43.7028 891.338 46.3088C890.451 48.9148 890.008 51.6688 890.008 54.571C890.008 57.2954 890.569 59.7237 891.693 61.8559C892.875 63.9289 894.531 65.5576 896.659 66.7421C898.847 67.8675 901.508 68.4301 904.641 68.4301ZM965.368 68.2524L967.94 48.1744L999.513 19.5677H1020.18L987.806 48.5298L976.099 58.5688L965.368 68.2524ZM946.831 81.7562L959.248 19.5677H976.543L964.126 81.7562H946.831ZM989.491 81.7562L973.084 56.0813L985.855 44.2654L1009.09 81.7562H989.491ZM1039.42 43.6436H1068.24L1065.67 56.792H1036.85L1039.42 43.6436ZM1035.78 68.1636H1068.33L1065.49 81.7562H1015.74L1028.16 19.5677H1076.76L1074.01 33.1603H1042.7L1035.78 68.1636ZM1044.48 14.5038L1057.78 1H1075.16L1056.98 14.5038H1044.48ZM1077.55 81.7562L1089.96 19.5677H1104.24L1121.36 61.9447H1113.82L1146.99 19.5677H1161.98L1149.74 81.7562H1133.51L1140.87 44.0878L1143.8 43.9989L1119.23 75.6262H1111.51L1098.12 43.9101L1101.23 44.1766L1093.69 81.7562H1077.55ZM1197.91 83C1191.52 83 1186.02 81.8451 1181.41 79.5352C1176.8 77.1661 1173.25 73.9382 1170.77 69.8516C1168.28 65.7649 1167.04 61.0267 1167.04 55.6371C1167.04 50.1882 1167.99 45.2131 1169.88 40.7118C1171.77 36.1513 1174.43 32.2127 1177.86 28.896C1181.29 25.52 1185.37 22.9141 1190.1 21.078C1194.89 19.242 1200.12 18.3239 1205.8 18.3239C1212.19 18.3239 1217.68 19.5085 1222.3 21.8776C1226.91 24.1874 1230.46 27.3857 1232.94 31.4724C1235.42 35.559 1236.66 40.2972 1236.66 45.6869C1236.66 51.1358 1235.72 56.1405 1233.83 60.701C1231.93 65.2022 1229.27 69.1408 1225.84 72.5168C1222.41 75.8335 1218.31 78.4099 1213.52 80.2459C1208.79 82.082 1203.58 83 1197.91 83ZM1199.41 68.4301C1202.49 68.4301 1205.21 67.8675 1207.57 66.7421C1210 65.6168 1212.04 64.0473 1213.69 62.0336C1215.41 59.9606 1216.71 57.6212 1217.6 55.0152C1218.48 52.4092 1218.93 49.6551 1218.93 46.753C1218.93 43.9693 1218.33 41.541 1217.15 39.468C1216.03 37.3951 1214.37 35.796 1212.19 34.6706C1210.06 33.4861 1207.43 32.8938 1204.29 32.8938C1201.28 32.8938 1198.56 33.4565 1196.13 34.5818C1193.71 35.7071 1191.64 37.3062 1189.92 39.3792C1188.27 41.3929 1187 43.7028 1186.11 46.3088C1185.22 48.9148 1184.78 51.6688 1184.78 54.571C1184.78 57.2954 1185.34 59.7237 1186.47 61.8559C1187.65 63.9289 1189.3 65.5576 1191.43 66.7421C1193.62 67.8675 1196.28 68.4301 1199.41 68.4301ZM1241.6 81.7562L1254.02 19.5677H1268.48L1293.58 61.1452L1287.55 60.9675L1295.79 19.5677H1313L1300.58 81.7562H1286.13L1261.12 40.1788L1267.06 40.3564L1258.81 81.7562H1241.6Z" stroke="white" stroke-width="2" mask="url(#path-1-outside-1_18006_2626)"/>
<path d="M1 295.212V105.788H45.0569L123.44 234.596H100.196L176.417 105.788H220.474L221.014 295.212H171.822L171.281 180.746H179.66L122.63 276.54H98.8442L40.1917 180.746H50.4627V295.212H1Z" fill="white" fill-opacity="0.4"/>
<path d="M234.586 295.212V105.788H382.974V147.191H287.563V253.809H386.488V295.212H234.586ZM283.779 219.172V179.122H371.622V219.172H283.779Z" fill="white" fill-opacity="0.4"/>
<path d="M436.011 295.212L374.655 105.788H429.794L481.419 269.775H453.58L507.907 105.788H557.1L608.454 269.775H581.696L634.943 105.788H686.027L624.672 295.212H567.371L523.584 155.85H538.99L493.312 295.212H436.011Z" fill="white" fill-opacity="0.4"/>
<path d="M720.652 295.212V148.273H662.54V105.788H832.011V148.273H774.169V295.212H720.652Z" fill="white" fill-opacity="0.4"/>
<path d="M869.926 295.212L808.57 105.788H863.709L915.334 269.775H887.494L941.822 105.788H991.015L1042.37 269.775H1015.61L1068.86 105.788H1119.94L1058.59 295.212H1001.29L957.499 155.85H972.905L927.227 295.212H869.926Z" fill="white" fill-opacity="0.4"/>
<path d="M1207.86 299C1192.72 299 1178.76 296.565 1165.96 291.694C1153.17 286.823 1142 279.968 1132.45 271.128C1123.08 262.108 1115.78 251.644 1110.55 239.738C1105.33 227.831 1102.72 214.752 1102.72 200.5C1102.72 186.248 1105.33 173.169 1110.55 161.262C1115.78 149.356 1123.08 138.983 1132.45 130.143C1142 121.123 1153.17 114.177 1165.96 109.306C1178.76 104.435 1192.72 102 1207.86 102C1223.17 102 1237.14 104.435 1249.75 109.306C1262.55 114.177 1273.63 121.123 1283 130.143C1292.37 138.983 1299.67 149.356 1304.89 161.262C1310.3 173.169 1313 186.248 1313 200.5C1313 214.752 1310.3 227.921 1304.89 240.008C1299.67 251.915 1292.37 262.288 1283 271.128C1273.63 279.968 1262.55 286.823 1249.75 291.694C1237.14 296.565 1223.17 299 1207.86 299ZM1207.86 254.621C1215.07 254.621 1221.73 253.358 1227.86 250.832C1234.17 248.307 1239.57 244.699 1244.08 240.008C1248.76 235.137 1252.37 229.364 1254.89 222.69C1257.59 216.015 1258.94 208.618 1258.94 200.5C1258.94 192.201 1257.59 184.805 1254.89 178.31C1252.37 171.636 1248.76 165.953 1244.08 161.262C1239.57 156.391 1234.17 152.693 1227.86 150.168C1221.73 147.642 1215.07 146.379 1207.86 146.379C1200.65 146.379 1193.89 147.642 1187.59 150.168C1181.46 152.693 1176.05 156.391 1171.37 161.262C1166.86 165.953 1163.26 171.636 1160.56 178.31C1158.03 184.805 1156.77 192.201 1156.77 200.5C1156.77 208.618 1158.03 216.015 1160.56 222.69C1163.26 229.364 1166.86 235.137 1171.37 240.008C1176.05 244.699 1181.46 248.307 1187.59 250.832C1193.89 253.358 1200.65 254.621 1207.86 254.621Z" fill="white" fill-opacity="0.4"/>
</svg>
