<svg width="365" height="85" viewBox="0 0 365 85" fill="none" xmlns="http://www.w3.org/2000/svg">
<path d="M40.747 0.0210787C48.0179 -0.228377 54.7285 1.75266 61.148 5.09457C63.8682 3.03774 66.1133 2.88917 69.3706 3.75659C70.8659 4.15467 72.9092 4.68267 73.7619 6.13682C74.9278 8.12381 73.1916 9.35955 72.1251 10.773C71.6463 11.4294 71.391 12.0733 71.2007 12.8453C71.771 13.5146 72.4268 14.1918 73.0158 14.8781C73.9046 15.9206 74.7405 17.0078 75.5216 18.1357C80.1983 24.8178 82.8293 33.305 82.9925 41.5032C83.2045 52.9646 78.8915 64.0327 71.0219 72.2245C63.3353 80.274 52.8183 84.871 41.7973 84.9998C33.9618 85.0225 26.2829 82.7649 19.6637 78.4919C9.76139 72.0613 3.39063 62.3782 0.874186 50.7425C-1.38994 40.2734 0.836065 28.7136 6.48442 19.7198C7.43265 18.2332 8.46917 16.807 9.58808 15.4491C10.1447 14.7831 11.2081 13.7358 11.6177 13.0387C11.3119 12.2789 11.1033 11.8072 10.6571 11.073C10.0766 10.0831 8.47387 8.78049 8.34253 7.63275C8.19667 5.85287 10.3769 4.85119 11.7019 4.37823C15.4547 3.0386 18.1599 2.84137 21.4035 5.43761C27.1149 2.05035 34.1642 0.158233 40.747 0.0210787ZM28.7307 18.004C29.1416 18.9127 29.5937 19.8707 29.9667 20.7911C27.0501 18.9931 24.1842 15.0598 22.4639 12.0573C21.6725 10.676 20.8835 8.14608 19.7244 7.16047C17.722 5.4578 12.8934 5.95965 11.0511 7.70786C11.8486 8.81486 12.7671 10.0687 13.2561 11.3596C14.0338 13.4128 14.3486 15.7476 14.8682 17.8852C15.5247 20.5863 16.4247 23.1997 16.7851 25.9622C16.9085 26.9011 16.8964 27.8532 16.7491 28.7885C16.4163 30.9456 15.4594 32.9308 15.4256 35.2125C15.3872 37.8157 16.0125 40.2347 16.3875 42.7888C16.7041 45.3631 16.7607 48.3069 16.8254 50.9205C16.9137 52.9769 17.006 55.1051 17.3975 57.1289C17.6584 58.4778 18.4798 59.6149 19.455 60.533C21.4546 62.4163 23.6025 63.8191 25.8812 65.3091L31.2107 68.7653C33.1014 69.9908 35.2375 71.6158 37.3063 72.4313C39.4201 73.2641 43.7082 73.2647 45.7919 72.2908C47.8689 71.32 50.0205 69.6447 51.9463 68.3492L56.3695 65.3926C58.8464 63.7559 61.6774 61.8873 63.7092 59.6732C65.2256 58.0206 65.1955 55.0584 65.3298 52.8861C65.4273 51.2095 65.5665 49.5354 65.7477 47.8656C65.9729 45.8761 66.2415 43.8922 66.5535 41.9155C66.9335 39.6051 67.5122 36.8316 67.4502 34.488C67.396 32.4367 66.0795 29.2599 66.0705 27.203C66.0554 23.9222 67.3911 19.8078 68.1505 16.5958C68.5715 14.8149 68.8804 12.9487 69.491 11.2485C70.0487 9.69498 70.7617 8.82431 71.6626 7.55248C70.5961 6.33331 67.3472 5.37305 65.8176 5.60035C62.2676 5.89908 61.5226 9.38931 60.196 11.946C58.9229 14.3987 55.3488 19.8277 52.8081 20.7046C53.0827 20.1141 53.9095 18.6235 53.7036 17.9374C53.5988 17.5887 52.7268 17.2183 52.3504 17.1159C49.2081 16.2617 46.0199 15.0963 42.7452 14.9987C40.1165 14.9203 37.6938 15.5136 35.1484 16.0683C32.9875 16.5576 30.7512 17.0916 28.7307 18.004ZM6.07973 32.1951C5.2847 35.3756 4.81082 38.2304 4.72109 41.5252C4.59198 48.5714 6.38409 55.5156 9.89809 61.5854C14.8558 70.2105 22.9734 76.476 32.4646 79.0019C41.7846 81.4614 51.6819 80.0365 59.9689 75.0425C68.5444 69.8846 74.7568 61.4657 77.2391 51.6385C79.557 42.1972 78.1622 31.3498 73.1844 23.0191C72.6556 22.1348 70.6383 19.0323 69.8626 18.5645C69.7602 19.4038 69.5615 20.2337 69.4435 21.0692C69.1683 23.0144 68.9045 25.5705 69.0418 27.5206C69.2712 30.7894 70.192 33.7627 70.0589 37.116C69.9048 40.9999 68.7768 44.739 68.1861 48.5781C67.9506 50.2062 67.7669 51.841 67.6362 53.4813C67.2195 58.1875 67.1238 60.582 63.0739 63.5264C61.7978 64.4543 60.4983 65.6037 59.1806 66.5033C56.7724 68.124 54.3347 69.7827 51.8981 71.3531C50.1138 72.5031 48.0642 74.1281 46.0517 74.7522C44.193 75.3285 40.6928 75.4358 38.7393 75.1891C37.7698 75.0695 36.8261 74.7897 35.9451 74.3601C34.4684 73.639 32.8884 72.4099 31.4746 71.5022C27.366 68.8641 23.0438 66.5352 19.2865 63.3742C17.351 61.7456 15.7727 60.3875 15.2418 57.7708C14.6472 54.8406 14.6516 51.9201 14.3521 48.9555C14.2235 47.773 14.0714 46.545 13.8831 45.3729C13.4105 42.4322 12.7624 39.5069 12.8296 36.5076C12.83 33.2266 13.7589 29.9927 13.6956 26.7137C13.6595 24.8516 13.2981 22.96 13.1214 21.1046C13.123 21.1223 12.7503 19.1049 12.783 19.1796L12.6932 19.1427C12.3278 19.4037 11.6474 20.4417 11.3681 20.8503C8.97936 24.2945 7.19045 28.1322 6.07973 32.1951ZM41.9673 12.2975C43.4195 12.3105 44.5832 12.3557 46.0194 12.5879C48.9323 13.0591 51.8132 14.1765 54.6532 14.7598C56.1058 15.0581 58.3213 10.3925 58.8241 9.27376C57.9883 8.72545 56.9206 8.24016 56.0034 7.84747C51.3453 5.85342 45.4587 4.50661 40.3808 4.81338C35.4831 5.01098 30.6715 6.18879 26.2202 8.27968C25.5947 8.5735 24.3134 9.18097 23.7674 9.57961C24.3219 10.969 26.2682 15.4342 28.0707 14.9342C32.7591 13.6336 37.0508 12.3622 41.9673 12.2975Z" fill="#FEFEFE"/>
<path d="M17.6724 38.9294C17.9809 39.0012 19.108 39.8512 19.4357 40.0623C21.6731 41.5032 23.842 43.0146 25.8658 44.7617C26.8465 45.6117 27.7784 46.5187 28.657 47.4778C29.6587 48.5505 35.5806 55.3634 35.6581 56.3269C35.5873 56.511 35.4629 56.5503 35.2885 56.6503C33.9962 57.2345 32.1186 57.0621 30.8451 56.6239C27.9416 55.6242 22.8868 55.4266 21.8999 51.9159C21.2899 49.7453 20.4155 47.2268 20.1265 45.0182C19.7423 42.0825 19.1053 41.3393 17.6724 38.9294ZM26.157 53.9324C25.7144 52.2976 25.6198 50.4013 25.7048 48.7131C25.7505 47.8049 25.8805 46.8592 25.91 45.9504C25.3675 45.4098 22.8458 43.5534 22.1698 43.2981C21.345 45.9271 22.2361 50.6437 24.1021 52.6326C24.5696 53.1309 25.4857 53.8109 26.157 53.9324Z" fill="#FEFEFE"/>
<path d="M64.8058 38.8982L64.8486 38.9951C64.0603 39.8291 63.0402 41.4369 62.6397 42.5053C62.3067 43.3932 62.2308 44.6028 62.0278 45.5601C61.5599 47.7675 61.0986 49.9975 60.4242 52.1503C60.0689 53.2819 59.3709 54.5902 58.2671 55.083C57.0373 55.631 55.5469 55.7236 54.2262 56.0237C52.9857 56.3048 51.4994 56.8571 50.2595 56.9553C49.5627 57.0154 48.8611 56.9209 48.2039 56.6773C48.0301 56.6055 47.856 56.5061 47.689 56.4165C48.3459 55.1812 49.8337 53.3095 50.7063 52.1503C52.7689 49.409 55.1777 46.4389 57.7311 44.1573C59.7846 42.3224 62.4964 40.5023 64.8058 38.8982ZM57.0379 45.9087C57.2373 49.0077 57.5793 50.7032 56.7844 53.8194C59.236 51.6759 60.2345 49.4759 60.4645 46.2014C60.4982 45.7135 60.5404 43.9142 60.2772 43.5503C59.2372 44.1879 57.9154 45.0391 57.0379 45.9087Z" fill="#FEFEFE"/>
<path d="M49.7929 40.7238L49.8507 40.7796C49.7333 40.995 49.3054 41.4412 49.1291 41.6744C48.5265 42.4721 48.0421 43.33 47.5963 44.2248C45.7263 47.9503 44.9877 52.1595 45.4748 56.3146C45.3081 56.0268 45.2133 55.7899 45.0845 55.4831C44.7705 54.6737 44.4871 53.6648 44.4164 52.7989C44.0606 48.4456 46.4954 43.3748 49.7929 40.7238Z" fill="#FEFEFE"/>
<path d="M33.5449 40.9779C33.815 41.0767 34.3229 41.6842 34.5309 41.9094C37.7653 45.4178 39.5323 50.3725 38.1469 55.1554C38.0974 55.2745 38.0423 55.3591 37.9769 55.4678C37.8973 55.3874 37.9659 54.4988 37.9628 54.311C37.8981 50.2725 36.8477 46.1928 34.7943 42.725C34.444 42.1334 33.9556 41.6044 33.5767 41.027L33.5449 40.9779Z" fill="#FEFEFE"/>
<path d="M45.1773 67.2765C45.515 67.2685 46.1796 67.2465 46.4443 67.4477C46.5822 68.2823 44.6289 68.4505 44.0409 68.6284C43.8083 68.7536 43.3883 69.0279 43.1698 68.9758C43.0642 68.6524 43.3324 68.1847 43.5385 67.9473C43.9881 67.4293 44.5338 67.3318 45.1773 67.2765Z" fill="#FEFEFE"/>
<path d="M37.3593 67.2753C37.8945 67.2587 38.4189 67.2747 38.9104 67.5183C39.335 67.7282 40.079 68.4081 39.8057 68.95C39.6153 68.9997 39.639 68.9574 39.404 68.8334C38.2768 68.2424 37.0657 68.6542 36.5083 67.3686C36.7706 67.3244 37.0905 67.3017 37.3593 67.2753Z" fill="#FEFEFE"/>
<path d="M99 49.1923V8.80769H107.145L121.635 36.2692H117.338L131.428 8.80769H139.573L139.673 49.1923H130.579L130.479 24.7885H132.028L121.485 45.2115H117.088L106.245 24.7885H108.144V49.1923H99Z" fill="white"/>
<path d="M146.673 49.1923V8.80769H174.105V17.6346H156.467V40.3654H174.755V49.1923H146.673ZM155.767 32.9808V24.4423H172.007V32.9808H155.767Z" fill="white"/>
<path d="M188.401 49.1923L177.059 8.80769H187.252L196.796 43.7692H191.649L201.692 8.80769H210.786L220.28 43.7692H215.333L225.177 8.80769H234.62L223.278 49.1923H212.685L204.59 19.4808H207.438L198.994 49.1923H188.401Z" fill="white"/>
<path d="M245.513 49.1923V17.8654H234.77V8.80769H266.099V17.8654H255.406V49.1923H245.513Z" fill="white"/>
<path d="M277.6 49.1923L266.257 8.80769H276.45L285.994 43.7692H280.847L290.891 8.80769H299.985L309.478 43.7692H304.532L314.375 8.80769H323.819L312.476 49.1923H301.883L293.789 19.4808H296.637L288.193 49.1923H277.6Z" fill="white"/>
<path d="M344.563 50C341.765 50 339.183 49.4808 336.818 48.4423C334.453 47.4038 332.388 45.9423 330.622 44.0577C328.89 42.1346 327.541 39.9038 326.575 37.3654C325.609 34.8269 325.126 32.0385 325.126 29C325.126 25.9615 325.609 23.1731 326.575 20.6346C327.541 18.0962 328.89 15.8846 330.622 14C332.388 12.0769 334.453 10.5962 336.818 9.55769C339.183 8.51923 341.765 8 344.563 8C347.394 8 349.976 8.51923 352.308 9.55769C354.673 10.5962 356.721 12.0769 358.454 14C360.186 15.8846 361.535 18.0962 362.501 20.6346C363.5 23.1731 364 25.9615 364 29C364 32.0385 363.5 34.8462 362.501 37.4231C361.535 39.9615 360.186 42.1731 358.454 44.0577C356.721 45.9423 354.673 47.4038 352.308 48.4423C349.976 49.4808 347.394 50 344.563 50ZM344.563 40.5385C345.895 40.5385 347.128 40.2692 348.26 39.7308C349.426 39.1923 350.426 38.4231 351.258 37.4231C352.125 36.3846 352.791 35.1538 353.257 33.7308C353.757 32.3077 354.007 30.7308 354.007 29C354.007 27.2308 353.757 25.6538 353.257 24.2692C352.791 22.8462 352.125 21.6346 351.258 20.6346C350.426 19.5962 349.426 18.8077 348.26 18.2692C347.128 17.7308 345.895 17.4615 344.563 17.4615C343.23 17.4615 341.981 17.7308 340.815 18.2692C339.683 18.8077 338.683 19.5962 337.817 20.6346C336.985 21.6346 336.318 22.8462 335.819 24.2692C335.352 25.6538 335.119 27.2308 335.119 29C335.119 30.7308 335.352 32.3077 335.819 33.7308C336.318 35.1538 336.985 36.3846 337.817 37.4231C338.683 38.4231 339.683 39.1923 340.815 39.7308C341.981 40.2692 343.23 40.5385 344.563 40.5385Z" fill="white"/>
<path d="M99 76.6346V58.3654H107.492C109.191 58.3654 110.65 58.6351 111.871 59.1745C113.11 59.7138 114.065 60.4968 114.737 61.5234C115.41 62.5325 115.746 63.7331 115.746 65.125C115.746 66.4995 115.41 67.6914 114.737 68.7005C114.065 69.7097 113.11 70.4927 111.871 71.0495C110.65 71.5888 109.191 71.8585 107.492 71.8585H101.919L104.255 69.614V76.6346H99ZM104.255 70.1621L101.919 67.7871H107.174C108.271 67.7871 109.085 67.5522 109.615 67.0824C110.164 66.6126 110.438 65.9602 110.438 65.125C110.438 64.2724 110.164 63.6113 109.615 63.1415C109.085 62.6717 108.271 62.4368 107.174 62.4368H101.919L104.255 60.0618V70.1621Z" fill="white"/>
<path d="M125.095 77C123.574 77 122.105 76.8173 120.69 76.4519C119.292 76.0691 118.151 75.582 117.267 74.9904L118.992 71.1799C119.823 71.7019 120.778 72.1369 121.858 72.4849C122.955 72.8155 124.043 72.9808 125.122 72.9808C125.847 72.9808 126.431 72.9199 126.873 72.7981C127.316 72.6589 127.634 72.4849 127.829 72.2761C128.041 72.0499 128.147 71.7889 128.147 71.4931C128.147 71.0755 127.953 70.745 127.563 70.5014C127.174 70.2578 126.67 70.0577 126.051 69.9011C125.432 69.7445 124.742 69.5879 123.981 69.4313C123.238 69.2747 122.486 69.0746 121.725 68.831C120.982 68.5875 120.301 68.2743 119.682 67.8915C119.062 67.4913 118.558 66.978 118.169 66.3516C117.78 65.7079 117.585 64.8988 117.585 63.9245C117.585 62.8283 117.886 61.8365 118.487 60.9492C119.107 60.0618 120.027 59.3484 121.247 58.8091C122.468 58.2697 123.99 58 125.812 58C127.033 58 128.227 58.1392 129.395 58.4176C130.58 58.6786 131.633 59.0701 132.553 59.592L130.934 63.4286C130.049 62.9588 129.173 62.6108 128.307 62.3846C127.44 62.141 126.599 62.0192 125.785 62.0192C125.06 62.0192 124.476 62.0975 124.034 62.2541C123.592 62.3933 123.273 62.5847 123.078 62.8283C122.884 63.0719 122.787 63.3503 122.787 63.6635C122.787 64.0636 122.972 64.3855 123.344 64.6291C123.733 64.8553 124.237 65.0467 124.857 65.2033C125.493 65.3425 126.183 65.4904 126.927 65.647C127.687 65.8036 128.439 66.0037 129.182 66.2473C129.943 66.4734 130.633 66.7866 131.252 67.1868C131.872 67.5696 132.367 68.0829 132.738 68.7266C133.128 69.353 133.322 70.1447 133.322 71.1016C133.322 72.163 133.013 73.1461 132.393 74.0508C131.792 74.9382 130.881 75.6516 129.66 76.1909C128.457 76.7303 126.935 77 125.095 77Z" fill="white"/>
<path d="M140.058 76.6346V68.9093L141.279 72.0151L132.972 58.3654H138.519L144.517 68.2569H141.305L147.33 58.3654H152.425L144.145 72.0151L145.313 68.9093V76.6346H140.058Z" fill="white"/>
<path d="M162.22 77C160.751 77 159.389 76.7738 158.133 76.3214C156.895 75.8516 155.815 75.1905 154.895 74.3379C153.993 73.4853 153.285 72.4849 152.772 71.3365C152.259 70.1708 152.003 68.8919 152.003 67.5C152.003 66.1081 152.259 64.8379 152.772 63.6896C153.285 62.5238 153.993 61.5147 154.895 60.6621C155.815 59.8095 156.895 59.1571 158.133 58.7047C159.389 58.2349 160.751 58 162.22 58C163.936 58 165.466 58.2958 166.811 58.8874C168.173 59.4789 169.306 60.3315 170.208 61.4451L166.864 64.4203C166.263 63.7244 165.599 63.1937 164.874 62.8283C164.166 62.4629 163.37 62.2802 162.485 62.2802C161.725 62.2802 161.026 62.402 160.389 62.6456C159.752 62.8892 159.203 63.2459 158.743 63.7157C158.301 64.168 157.947 64.7161 157.682 65.3599C157.434 66.0037 157.31 66.717 157.31 67.5C157.31 68.283 157.434 68.9963 157.682 69.6401C157.947 70.2839 158.301 70.8407 158.743 71.3104C159.203 71.7628 159.752 72.1108 160.389 72.3544C161.026 72.598 161.725 72.7198 162.485 72.7198C163.37 72.7198 164.166 72.5371 164.874 72.1717C165.599 71.8063 166.263 71.2756 166.864 70.5797L170.208 73.5549C169.306 74.6511 168.173 75.5037 166.811 76.1126C165.466 76.7042 163.936 77 162.22 77Z" fill="white"/>
<path d="M184.763 76.6346V58.3654H190.018V76.6346H184.763ZM172.344 76.6346V58.3654H177.598V76.6346H172.344ZM177.227 69.5096V65.2294H185.135V69.5096H177.227Z" fill="white"/>
<path d="M193.725 76.6346V58.3654H198.979V76.6346H193.725Z" fill="white"/>
<path d="M211.979 77C210.511 77 209.149 76.7738 207.893 76.3214C206.654 75.8516 205.575 75.1905 204.655 74.3379C203.753 73.4853 203.045 72.4849 202.532 71.3365C202.019 70.1708 201.762 68.8919 201.762 67.5C201.762 66.1081 202.019 64.8379 202.532 63.6896C203.045 62.5238 203.753 61.5147 204.655 60.6621C205.575 59.8095 206.654 59.1571 207.893 58.7047C209.149 58.2349 210.511 58 211.979 58C213.696 58 215.226 58.2958 216.571 58.8874C217.933 59.4789 219.065 60.3315 219.968 61.4451L216.624 64.4203C216.022 63.7244 215.359 63.1937 214.633 62.8283C213.926 62.4629 213.129 62.2802 212.245 62.2802C211.484 62.2802 210.785 62.402 210.148 62.6456C209.511 62.8892 208.963 63.2459 208.503 63.7157C208.061 64.168 207.707 64.7161 207.441 65.3599C207.194 66.0037 207.07 66.717 207.07 67.5C207.07 68.283 207.194 68.9963 207.441 69.6401C207.707 70.2839 208.061 70.8407 208.503 71.3104C208.963 71.7628 209.511 72.1108 210.148 72.3544C210.785 72.598 211.484 72.7198 212.245 72.7198C213.129 72.7198 213.926 72.5371 214.633 72.1717C215.359 71.8063 216.022 71.2756 216.624 70.5797L219.968 73.5549C219.065 74.6511 217.933 75.5037 216.571 76.1126C215.226 76.7042 213.696 77 211.979 77Z" fill="white"/>
<path d="M239.088 77C237.62 77 236.257 76.7738 235.001 76.3214C233.763 75.8516 232.683 75.1905 231.763 74.3379C230.861 73.4853 230.153 72.4849 229.64 71.3365C229.127 70.1708 228.871 68.8919 228.871 67.5C228.871 66.1081 229.127 64.8379 229.64 63.6896C230.153 62.5238 230.861 61.5147 231.763 60.6621C232.683 59.8095 233.763 59.1571 235.001 58.7047C236.257 58.2349 237.62 58 239.088 58C240.804 58 242.335 58.2958 243.679 58.8874C245.042 59.4789 246.174 60.3315 247.076 61.4451L243.732 64.4203C243.131 63.7244 242.467 63.1937 241.742 62.8283C241.034 62.4629 240.238 62.2802 239.353 62.2802C238.593 62.2802 237.894 62.402 237.257 62.6456C236.62 62.8892 236.072 63.2459 235.612 63.7157C235.169 64.168 234.815 64.7161 234.55 65.3599C234.302 66.0037 234.178 66.717 234.178 67.5C234.178 68.283 234.302 68.9963 234.55 69.6401C234.815 70.2839 235.169 70.8407 235.612 71.3104C236.072 71.7628 236.62 72.1108 237.257 72.3544C237.894 72.598 238.593 72.7198 239.353 72.7198C240.238 72.7198 241.034 72.5371 241.742 72.1717C242.467 71.8063 243.131 71.2756 243.732 70.5797L247.076 73.5549C246.174 74.6511 245.042 75.5037 243.679 76.1126C242.335 76.7042 240.804 77 239.088 77Z" fill="white"/>
<path d="M257.602 77C254.86 77 252.719 76.2605 251.18 74.7816C249.641 73.3027 248.871 71.206 248.871 68.4918V58.3654H254.126V68.3352C254.126 69.9011 254.435 71.0234 255.054 71.7019C255.691 72.3805 256.558 72.7198 257.655 72.7198C258.752 72.7198 259.61 72.3805 260.229 71.7019C260.849 71.0234 261.158 69.9011 261.158 68.3352V58.3654H266.333V68.4918C266.333 71.206 265.564 73.3027 264.024 74.7816C262.485 76.2605 260.344 77 257.602 77Z" fill="white"/>
<path d="M269.893 76.6346V58.3654H275.148V72.5371H284.011V76.6346H269.893Z" fill="white"/>
<path d="M288.049 76.6346V62.4629H282.344V58.3654H298.983V62.4629H293.304V76.6346H288.049Z" fill="white"/>
<path d="M309.15 77C306.408 77 304.267 76.2605 302.728 74.7816C301.188 73.3027 300.419 71.206 300.419 68.4918V58.3654H305.673V68.3352C305.673 69.9011 305.983 71.0234 306.602 71.7019C307.239 72.3805 308.106 72.7198 309.203 72.7198C310.3 72.7198 311.158 72.3805 311.777 71.7019C312.396 71.0234 312.706 69.9011 312.706 68.3352V58.3654H317.881V68.4918C317.881 71.206 317.111 73.3027 315.572 74.7816C314.033 76.2605 311.892 77 309.15 77Z" fill="white"/>
<path d="M321.441 76.6346V58.3654H329.747C332.454 58.3654 334.533 58.9744 335.984 60.1923C337.452 61.3929 338.186 63.0371 338.186 65.125C338.186 66.4995 337.85 67.6914 337.178 68.7005C336.506 69.6923 335.55 70.4579 334.312 70.9973C333.091 71.5192 331.631 71.7802 329.933 71.7802H324.36L326.695 69.614V76.6346H321.441ZM332.932 76.6346L328.314 69.9794H333.914L338.558 76.6346H332.932ZM326.695 70.1621L324.36 67.7871H329.615C330.712 67.7871 331.525 67.5522 332.056 67.0824C332.605 66.6126 332.879 65.9602 332.879 65.125C332.879 64.2724 332.605 63.6113 332.056 63.1415C331.525 62.6717 330.712 62.4368 329.615 62.4368H324.36L326.695 60.0618V70.1621Z" fill="white"/>
<path d="M341.085 76.6346V58.3654H355.655V62.3585H346.287V72.6415H356V76.6346H341.085ZM345.915 69.3008V65.4382H354.54V69.3008H345.915Z" fill="white"/>
</svg>
